<?xml version="1.0" encoding="utf-8"?>
<!-- Generator: Adobe Illustrator 28.0.0, SVG Export Plug-In . SVG Version: 6.00 Build 0)  -->
<svg version="1.1" id="Layer_2_00000056385430554826204620000002876782569600778388_"
	 xmlns="http://www.w3.org/2000/svg" xmlns:xlink="http://www.w3.org/1999/xlink" x="0px" y="0px" viewBox="0 0 80.8 45.8"
	 style="enable-background:new 0 0 80.8 45.8;" xml:space="preserve">
<style type="text/css">
	.st0{fill:#F4E0D0;}
</style>
<path class="st0" d="M78.2,10.8c-1.7-3.4-4.1-6.1-7.4-7.9C67.5,0.9,63.5,0,58.7,0c-1.5,0-4.7,0-5.8,0c-1.6,0-3.2,0.1-5,0.2
	c-0.6,0-1.2,0-1.8,0.1c-0.1,0-0.1,0-0.2,0c-0.9,0-1.8-0.1-2.8-0.1c-0.9,0-1.8-0.1-2.6-0.1l-0.1,1.5l-0.1,0.1
	c-0.4,1.1-0.8,2.4-1.3,3.8C38.5,6.8,38,8,37.7,9.1c-0.4,1.1-0.7,1.8-0.8,2.1L28,34.4l-8.7-22.8c-0.1-0.4-0.4-1.1-0.8-2.2
	S17.8,7,17.3,5.6c-0.5-1.4-0.9-2.7-1.4-3.9l-1.2-1.4H9.9c-0.4,0-1,0-1.9-0.1c-0.9,0-1.8-0.1-2.8-0.1c-1,0-1.9-0.1-2.7-0.1L2.3,3.3
	l5.3,0.8C7.7,5,7.7,5.9,7.8,6.8c0.1,0.9,0.1,1.6,0.1,2.1L6.2,36.8c0,0.3-0.1,0.9-0.3,1.6c-0.2,0.7-0.4,1.4-0.6,2.2
	c-0.1,0.3-0.2,0.7-0.3,1l-5.1,1l0.3,3.1c0.9,0,1.8-0.1,2.8-0.1c1.1,0,2.1-0.1,2.9-0.1s1.6-0.1,2-0.1h7.3l0.4-3.4l-5.3-0.5
	c-0.1-0.5-0.1-1.1-0.2-1.7c0-1-0.1-1.9-0.1-2.8c0-0.9,0-1.7,0-2.2l1.5-27.2L26,45.5h2L42.3,7.7l1.8,29.1c0,0.5,0,1.3-0.1,2.3
	c-0.1,0.8-0.2,1.7-0.3,2.5l-4.9,1l0.3,3.1c0.4,0,0.9,0,1.3,0c0.6,0,1.2,0,1.8-0.1c1.1,0,2.2-0.1,3.1-0.1c1,0,1.8-0.1,2.3-0.1H49
	c1.6,0,3.2,0,4.9,0.1c1.7,0.1,3.3,0.1,4.9,0.1c4.6,0,8.5-1,11.8-2.9c3.3-1.9,5.8-4.6,7.6-8c1.8-3.5,2.7-7.4,2.7-11.9
	S79.9,14.2,78.2,10.8L78.2,10.8z M73,32.6c-1.2,2.9-2.9,5.2-5.2,7c-2.3,1.7-5.3,2.6-8.9,2.6c-1,0-1.9,0-2.8,0l-4.3-0.4
	c0-0.1,0-0.3-0.1-0.5c-0.1-0.8-0.2-1.8-0.3-2.8s-0.1-2.2-0.1-3.5v-24c0-0.8,0-1.6,0.1-2.5c0-0.9,0.1-1.8,0.2-2.7
	c0.1-0.7,0.1-1.4,0.2-1.9l0.7,0h6.4c2.7,0,5,0.5,6.9,1.4c-0.9,0.2-1.6,0.7-2.1,1.4c-0.8,1-1.2,2.2-1.2,3.8s0.4,2.8,1.2,3.8
	c0.8,1,2,1.5,3.5,1.5s2.8-0.5,3.6-1.5c0.7-0.8,1.1-1.7,1.2-2.9c0.4,0.7,0.7,1.4,1,2.2c1.2,2.9,1.7,6.1,1.7,9.6S74.2,29.7,73,32.6
	L73,32.6z"/>
</svg>
